<svg width="21" height="20" viewBox="0 0 21 20" fill="none" xmlns="http://www.w3.org/2000/svg">
<path d="M2.33301 16.59C2.33301 16.8552 2.22765 17.1096 2.04011 17.2971C1.85258 17.4846 1.59822 17.59 1.33301 17.59C1.06779 17.59 0.813437 17.4846 0.625901 17.2971C0.438365 17.1096 0.333008 16.8552 0.333008 16.59V10.5C0.333008 4.977 4.81001 0.5 10.333 0.5C15.856 0.5 20.333 4.977 20.333 10.5V13.586C20.333 13.8512 20.2277 14.1056 20.0401 14.2931C19.8526 14.4806 19.5982 14.586 19.333 14.586C19.0678 14.586 18.8134 14.4806 18.6259 14.2931C18.4384 14.1056 18.333 13.8512 18.333 13.586V10.5C18.333 8.37827 17.4902 6.34344 15.9899 4.84315C14.4896 3.34285 12.4547 2.5 10.333 2.5C8.21128 2.5 6.17644 3.34285 4.67615 4.84315C3.17586 6.34344 2.33301 8.37827 2.33301 10.5V16.59ZM2.33301 10.5H4.33301C4.86344 10.5 5.37215 10.7107 5.74722 11.0858C6.12229 11.4609 6.33301 11.9696 6.33301 12.5V17.5C6.33301 18.0304 6.12229 18.5391 5.74722 18.9142C5.37215 19.2893 4.86344 19.5 4.33301 19.5H2.33301C1.80257 19.5 1.29387 19.2893 0.918794 18.9142C0.543722 18.5391 0.333008 18.0304 0.333008 17.5V12.5C0.333008 11.9696 0.543722 11.4609 0.918794 11.0858C1.29387 10.7107 1.80257 10.5 2.33301 10.5ZM2.33301 12.5V17.5H4.33301V12.5H2.33301ZM16.333 10.5H18.333C18.8634 10.5 19.3721 10.7107 19.7472 11.0858C20.1223 11.4609 20.333 11.9696 20.333 12.5V17.5C20.333 18.0304 20.1223 18.5391 19.7472 18.9142C19.3721 19.2893 18.8634 19.5 18.333 19.5H16.333C15.8026 19.5 15.2939 19.2893 14.9188 18.9142C14.5437 18.5391 14.333 18.0304 14.333 17.5V12.5C14.333 11.9696 14.5437 11.4609 14.9188 11.0858C15.2939 10.7107 15.8026 10.5 16.333 10.5ZM16.333 12.5V17.5H18.333V12.5H16.333Z" fill="#475569"/>
</svg>
